<?xml version="1.0" encoding="UTF-8" standalone="no"?>
<svg
   viewBox="0 0 128 128"
   version="1.1"
   id="svg8"
   sodipodi:docname="bash-original-filled.svg"
   inkscape:version="1.2.1 (9c6d41e410, 2022-07-14)"
   xmlns:inkscape="http://www.inkscape.org/namespaces/inkscape"
   xmlns:sodipodi="http://sodipodi.sourceforge.net/DTD/sodipodi-0.dtd"
   xmlns="http://www.w3.org/2000/svg"
   xmlns:svg="http://www.w3.org/2000/svg">
  <defs
     id="defs12" />
  <sodipodi:namedview
     id="namedview10"
     pagecolor="#ffffff"
     bordercolor="#000000"
     borderopacity="0.25"
     inkscape:showpageshadow="2"
     inkscape:pageopacity="0.0"
     inkscape:pagecheckerboard="0"
     inkscape:deskcolor="#d1d1d1"
     showgrid="false"
     inkscape:zoom="5.5353203"
     inkscape:cx="64.223926"
     inkscape:cy="78.586239"
     inkscape:window-width="1350"
     inkscape:window-height="1205"
     inkscape:window-x="1329"
     inkscape:window-y="1143"
     inkscape:window-maximized="0"
     inkscape:current-layer="svg8" />
  <path
     fill="none"
     d="M4.24 4.24h119.53v119.53H4.24z"
     id="path2" />
  <path
     fill="#293138"
     d="M109.01 28.64L71.28 6.24c-2.25-1.33-4.77-2-7.28-2s-5.03.67-7.28 2.01l-37.74 22.4c-4.5 2.67-7.28 7.61-7.28 12.96v44.8c0 5.35 2.77 10.29 7.28 12.96l37.73 22.4c2.25 1.34 4.76 2 7.28 2 2.51 0 5.03-.67 7.28-2l37.74-22.4c4.5-2.67 7.28-7.62 7.28-12.96V41.6c0-5.34-2.77-10.29-7.28-12.96zM79.79 98.59l.06 3.22c0 .39-.25.83-.55.99l-1.91 1.1c-.3.15-.56-.03-.56-.42l-.03-3.17c-1.63.68-3.29.84-4.34.42-.2-.08-.29-.37-.21-.71l.69-2.91c.06-.23.18-.46.34-.6.06-.06.12-.1.18-.13.11-.06.22-.07.31-.03 1.14.38 2.59.2 3.99-.5 1.78-.9 2.97-2.72 2.95-4.52-.02-1.64-.9-2.31-3.05-2.33-2.74.01-5.3-.53-5.34-4.57-.03-3.32 1.69-6.78 4.43-8.96l-.03-3.25c0-.4.24-.84.55-1l1.85-1.18c.3-.15.56.04.56.43l.03 3.25c1.36-.54 2.54-.69 3.61-.44.23.06.34.38.24.75l-.72 2.88c-.06.22-.18.44-.33.58a.77.77 0 01-.19.14c-.1.05-.19.06-.28.05-.49-.11-1.65-.36-3.48.56-1.92.97-2.59 2.64-2.58 3.88.02 1.48.77 1.93 3.39 1.97 3.49.06 4.99 1.58 5.03 5.09.05 3.44-1.79 7.15-4.61 9.41zm26.34-60.5l-35.7 22.05c-4.45 2.6-7.73 5.52-7.74 10.89v43.99c0 3.21 1.3 5.29 3.29 5.9-.65.11-1.32.19-1.98.19-2.09 0-4.15-.57-5.96-1.64l-37.73-22.4c-3.69-2.19-5.98-6.28-5.98-10.67V41.6c0-4.39 2.29-8.48 5.98-10.67l37.74-22.4c1.81-1.07 3.87-1.64 5.96-1.64s4.15.57 5.96 1.64l37.74 22.4c3.11 1.85 5.21 5.04 5.8 8.63-1.27-2.67-4.09-3.39-7.38-1.47z"
     id="path4" />
  <path
     fill="#4FA847"
     d="M99.12 90.73l-9.4 5.62c-.25.15-.43.31-.43.61v2.46c0 .3.2.43.45.28l9.54-5.8c.25-.15.29-.42.29-.72v-2.17c0-.3-.2-.42-.45-.28z"
     id="path6" />
  <path
     style="fill:#ffffff;stroke-width:0.180658"
     d="m 61.785043,120.77411 c -0.596172,-0.13092 -1.490429,-0.39346 -1.987238,-0.58344 C 58.670029,119.75943 20.418613,97.083047 19.059421,96.039955 17.146649,94.572025 15.513548,92.047431 14.78083,89.42572 14.471159,88.317699 14.452642,86.885525 14.452642,64.043268 c 0,-27.208044 -0.10633,-25.046225 1.381153,-28.080547 0.584554,-1.192433 1.06563,-1.842637 2.212139,-2.989848 C 19.485325,31.5326 19.858376,31.300975 39.278992,19.78933 52.612766,11.885684 59.463127,7.9250854 60.325651,7.6210088 c 0.941756,-0.3320085 1.779213,-0.4728664 3.177901,-0.5345146 2.095216,-0.092348 3.468148,0.161768 5.230106,0.9680398 0.542796,0.2483833 9.726881,5.63081 20.409081,11.960948 18.462811,10.940832 19.490291,11.576656 20.801151,12.872086 1.11756,1.10442 1.53733,1.686599 2.21438,3.071186 0.45948,0.939644 0.89074,1.952331 0.95835,2.250417 l 0.12292,0.541974 -0.61578,-0.608675 c -0.86671,-0.856696 -1.68407,-1.168011 -3.05467,-1.163444 -0.83073,0.0028 -1.4914,0.134879 -2.25823,0.451571 -1.18287,0.488513 -37.896416,23.111121 -39.882586,24.575347 -2.479132,1.827645 -4.21789,4.431169 -4.63661,6.942619 -0.149081,0.894171 -0.191987,7.747064 -0.154792,24.72262 l 0.05146,23.485547 0.414514,1.02556 c 0.383069,0.94777 1.658952,2.49727 2.056284,2.49727 0.09354,0 0.119823,0.0813 0.05841,0.18066 -0.154659,0.25024 -2.126057,0.20079 -3.432502,-0.0861 z"
     id="path864" />
  <path
     style="fill:#ffffff;stroke-width:0.180658"
     d="m 76.990426,103.75792 c -0.06624,-0.0662 -0.120439,-0.8792 -0.120439,-1.80658 0,-0.92738 -0.06097,-1.68526 -0.135493,-1.68418 -0.07452,10e-4 -0.534571,0.12302 -1.022331,0.27098 -0.980699,0.29751 -2.763596,0.35425 -3.164206,0.10071 -0.220893,-0.13981 -0.211822,-0.37916 0.06422,-1.694528 0.506425,-2.413201 0.467108,-2.372069 2.273527,-2.378497 1.719742,-0.0061 2.987931,-0.462403 4.17011,-1.50037 1.368168,-1.201267 2.100814,-3.458972 1.550149,-4.7769 -0.398149,-0.952904 -1.105729,-1.244667 -3.436921,-1.417179 -2.645519,-0.19577 -3.424348,-0.579936 -4.182708,-2.063159 -0.487506,-0.95348 -0.539928,-1.217812 -0.517436,-2.609071 0.0455,-2.814674 1.424009,-5.889865 3.565473,-7.953912 l 0.83562,-0.805411 V 73.61202 c 0,-1.669131 0.03529,-1.85884 0.406481,-2.185318 0.720687,-0.63387 1.949682,-1.348012 2.12906,-1.23715 0.09588,0.05926 0.17433,0.875257 0.17433,1.813331 0,1.850743 0.02791,1.892093 1.02197,1.514152 0.65016,-0.24719 2.558355,-0.274977 2.792665,-0.04067 0.120451,0.12045 0.05536,0.686002 -0.195286,1.696814 -0.590928,2.383096 -0.549759,2.329109 -1.776106,2.329109 -2.905732,0 -5.226089,1.741603 -5.418957,4.067335 -0.169562,2.044695 0.25433,2.390202 3.19989,2.608177 1.266654,0.09373 2.214178,0.266554 2.742317,0.500174 1.708192,0.755615 2.440411,2.419359 2.283527,5.188615 -0.155139,2.738458 -1.340473,5.383609 -3.398214,7.583341 l -1.071148,1.145059 v 1.659941 c 0,0.91297 -0.08243,1.81396 -0.183171,2.0022 -0.100744,0.18825 -0.674172,0.63003 -1.274285,0.98175 -1.213491,0.7112 -1.146831,0.68484 -1.312634,0.51904 z"
     id="path866" />
</svg>
